# xmcd
#
# Track frame offsets:
#	150
#	10559
#	22646
#	38671
#	52782
#	59881
#	76281
#	85066
#	100507
#	115695
#	130568
#	143284
#	152457
#	165757
#	180076
#	194544
#	209061
#	218382
#	230222
#	246269
#
# Disc length: 3417 seconds
#
# Revision: 0
# Processed by: cddbd v1.5PL3 Copyright (c) Steve Scherf et al.
# Submitted via: dBpowerAMP V4.0
#
DISCID=e20d5714
DTITLE=Willie Nelson - Live at Billy Bob's Texas
DYEAR=2004
DGENRE=Country
TTITLE0=Whiskey River
TTITLE1=Stay All Night (Stay a Little Longer)
TTITLE2=Good Hearted Woman
TTITLE3=Funny How Time Slips Away
TTITLE4=Crazy
TTITLE5=Night Life
TTITLE6=Down Yonder
TTITLE7=Workin' Man Blues
TTITLE8=Help Me Make It Through The Night
TTITLE9=Me and Bobby McGee
TTITLE10=Me and Paul
TTITLE11=If You Got The Money Honey I Got The Time
TTITLE12=Blue Eyes Cryin' In The Rain
TTITLE13=Under the Double Eagle
TTITLE14=Blue Skies
TTITLE15=Georgia On My Mind
TTITLE16=All Of Me
TTITLE17=Mammas Don't Let Your Babies Grow Up To Be Cowboys
TTITLE18=Angel Flying Too Close To The Ground
TTITLE19=On The Road Again
EXTD=
EXTT0=
EXTT1=
EXTT2=
EXTT3=
EXTT4=
EXTT5=
EXTT6=
EXTT7=
EXTT8=
EXTT9=
EXTT10=
EXTT11=
EXTT12=
EXTT13=
EXTT14=
EXTT15=
EXTT16=
EXTT17=
EXTT18=
EXTT19=
PLAYORDER=
